<svg width="1200" height="520" viewBox="0 0 1200 520" fill="none" xmlns="http://www.w3.org/2000/svg" role="img" aria-labelledby="title desc">
  <title id="title">Apple and accessibility symbols</title>
  <desc id="desc">A simple side-by-side image with the Apple logo on the left and an accessibility symbol on the right.</desc>
  <rect width="1200" height="520" rx="32" fill="#F7F9FC"/>
  <rect x="28" y="28" width="1144" height="464" rx="28" fill="white" stroke="#D7E1EE" stroke-width="2"/>

  <line x1="600" y1="132" x2="600" y2="388" stroke="#D9E3EF" stroke-width="2"/>

  <g transform="translate(214 110)">
    <path d="M307.4 133c-4.8 3.8-87.3 50.2-87.3 153.7 0 119.7 105.1 162.1 108.2 163.1-.5 2.6-16.7 58-55.4 114.5-34.5 49.7-70.5 99.4-125.3 99.4s-68.9-31.9-132.1-31.9c-61.7 0-83.6 32.9-133.7 32.9s-85.1-46-125.3-102.6C37.6 495.5 0 392.4 0 294.6 0 137.8 101.8 54.6 202 54.6c53.2 0 97.6 35 131 35 31.8 0 81.4-37.1 142-37.1 22.9 0 105.6 2.1 159.8 80zM118.8 0c25.1 0 42.8 41.3 42.8 82.6 0 5.8-.5 11.5-1.5 16.2-40.8 1.5-89.3 27.3-118.6 61.1-22.9 26.1-44.4 67.4-44.4 109.3 0 6.3 1 12.6 1.5 14.6 2.6.5 6.8 1 11 1 36.6 0 82.6-24.5 109.3-57.5 20.9-25.6 31.8-55 31-85.1-1.6-1.7-2.7-2.6-5.1-3.2z" fill="#111111"/>
  </g>

  <g transform="translate(720 84)">
    <circle cx="154" cy="176" r="146" stroke="#111111" stroke-width="18"/>
    <g transform="translate(154 176) scale(6.3)">
      <path d="M19.264 -11.832C19.264 -10.838 18.636 -10.027 17.695 -9.765C16.493 -9.399 7.998 -8.458 6.926 -8.224C5.881 -7.963 5.306 -7.151 5.279 -5.844C5.279 -3.962 5.28 2.206 5.725 5.054C6.169 7.852 9.435 21.259 9.566 21.81C9.958 23.273 9.071 24.501 7.633 24.501C6.614 24.501 5.856 23.978 5.542 22.594C4.862 19.848 2.483 10.571 1.829 8.322C1.333 6.754 0.863 6.127 0.001 6.127C-0.862 6.127 -1.359 6.754 -1.829 8.322C-2.509 10.571 -4.862 19.848 -5.542 22.594C-5.882 23.978 -6.64 24.501 -7.633 24.501C-9.07 24.501 -9.984 23.273 -9.566 21.81C-9.435 21.259 -6.169 7.852 -5.725 5.054C-5.28 2.206 -5.279 -3.962 -5.279 -5.844C-5.305 -7.151 -5.907 -7.963 -6.952 -8.224C-7.998 -8.458 -16.493 -9.399 -17.695 -9.765C-18.662 -10.027 -19.264 -10.838 -19.264 -11.832C-19.264 -13.216 -18.296 -14 -17.329 -14C-16.989 -14 -16.677 -13.947 -16.337 -13.895C-12.808 -13.243 -5.28 -12.406 -0.001 -12.406C5.279 -12.406 12.808 -13.243 16.337 -13.895C16.677 -13.947 16.989 -14 17.329 -14C18.27 -14 19.264 -13.215 19.264 -11.832ZM-4.813 -19.687C-4.813 -22.345 -2.658 -24.499 -0.001 -24.499C2.657 -24.499 4.813 -22.345 4.813 -19.687C4.813 -17.029 2.657 -14.875 -0.001 -14.875C-2.658 -14.875 -4.813 -17.029 -4.813 -19.687Z" fill="#111111"/>
    </g>
  </g>
</svg>
